<svg xmlns="http://www.w3.org/2000/svg" xmlns:xlink="http://www.w3.org/1999/xlink" viewBox="0,0,256,256" width="100px" height="100px" fill-rule="nonzero"><g fill="none" fill-rule="nonzero" stroke="none" stroke-width="1" stroke-linecap="butt" stroke-linejoin="miter" stroke-miterlimit="10" stroke-dasharray="" stroke-dashoffset="0" font-family="none" font-weight="none" font-size="none" text-anchor="none" style="mix-blend-mode: normal"><g transform="scale(2.56,2.56)"><path d="M74.212,21h9.906l-20.608,20.436c-3.602,3.547 -8.454,5.535 -13.51,5.535c-5.056,0 -9.908,-1.988 -13.51,-5.535l-20.608,-20.436h9.906l15.659,15.496c2.282,2.25 5.357,3.512 8.562,3.512c3.205,0 6.28,-1.262 8.562,-3.512z" fill="#cc5de8"></path><path d="M50,47.972c-5.352,0 -10.399,-2.067 -14.212,-5.822l-20.61,-20.44c-0.288,-0.285 -0.375,-0.716 -0.221,-1.091c0.154,-0.375 0.52,-0.619 0.925,-0.619h9.906c0.263,0 0.516,0.104 0.704,0.289l15.659,15.496c2.106,2.078 4.897,3.224 7.858,3.224c2.96,0 5.751,-1.146 7.859,-3.225l15.64,-15.494c0.187,-0.186 0.44,-0.29 0.704,-0.29h9.906c0.405,0 0.771,0.244 0.925,0.619c0.154,0.375 0.067,0.806 -0.221,1.091l-20.608,20.436c-3.815,3.758 -8.862,5.826 -14.214,5.826zM18.311,22l18.883,18.727c3.434,3.382 7.983,5.245 12.806,5.245c4.823,0 9.372,-1.863 12.809,-5.248l18.88,-18.724h-7.065l-15.35,15.206c-2.486,2.453 -5.776,3.803 -9.265,3.803c-3.49,0 -6.78,-1.35 -9.264,-3.801l-15.368,-15.208z" fill="#241f2b"></path><g><path d="M58.57,63.504c-2.282,-2.25 -5.357,-3.512 -8.562,-3.512c-3.205,0 -6.28,1.262 -8.562,3.512l-15.658,15.496h-9.906l20.608,-20.436c3.602,-3.547 8.454,-5.535 13.51,-5.535c5.056,0 9.908,1.988 13.51,5.535l20.608,20.436h-9.906z" fill="#cc5de8"></path><path d="M84.118,80h-9.906c-0.264,0 -0.517,-0.104 -0.704,-0.29l-15.64,-15.494c-2.108,-2.079 -4.899,-3.225 -7.859,-3.225c-2.961,0 -5.752,1.146 -7.859,3.225l-15.658,15.495c-0.188,0.185 -0.441,0.289 -0.704,0.289h-9.906c-0.405,0 -0.771,-0.244 -0.925,-0.619c-0.154,-0.375 -0.067,-0.806 0.221,-1.091l20.607,-20.437c3.815,-3.758 8.863,-5.825 14.214,-5.825c5.351,0 10.399,2.067 14.212,5.822l20.61,20.439c0.288,0.285 0.375,0.716 0.221,1.091c-0.154,0.375 -0.519,0.62 -0.924,0.62zM74.624,78h7.065l-18.883,-18.727c-3.434,-3.382 -7.983,-5.245 -12.806,-5.245c-4.823,0 -9.372,1.863 -12.809,5.248l-18.88,18.724h7.066l15.367,-15.207c2.485,-2.452 5.775,-3.802 9.265,-3.802c3.489,0 6.779,1.35 9.264,3.801c0,0.001 0.001,0.001 0.001,0.002z" fill="#241f2b"></path></g></g></g></svg>